<svg width="285" height="160" viewBox="0 0 285 160" fill="none" xmlns="http://www.w3.org/2000/svg">
<g clip-path="url(#clip0_77_1263)">
<path d="M75.6367 150.581C75.6367 154.073 78.2967 156.915 81.5647 156.915C84.8327 156.915 87.4927 154.073 87.4927 150.581C87.4927 147.942 85.9727 145.668 83.8257 144.735V134.402H79.3227V144.735C77.1567 145.668 75.6367 147.942 75.6367 150.581Z" fill="#4BE080"/>
<path d="M83.8067 134.402H79.3037V138.705H83.8067V134.402Z" fill="#4ACC8A"/>
<path d="M75.6367 150.581C75.6367 154.073 78.2967 156.915 81.5647 156.915C84.8327 156.915 87.4927 154.073 87.4927 150.581C87.4927 147.942 85.9727 145.668 83.8257 144.735V134.402H79.3227V144.735C77.1567 145.668 75.6367 147.942 75.6367 150.581Z" stroke="#441A36" stroke-width="6" stroke-miterlimit="10" stroke-linecap="round" stroke-linejoin="round"/>
<path d="M87.4927 31.3388C87.4927 27.8472 84.8327 25.0052 81.5647 25.0052C78.2967 25.0052 75.6367 27.8472 75.6367 31.3388C75.6367 33.9778 77.1567 36.2514 79.3037 37.1852V47.5179H83.8067V37.1852C85.9727 36.2514 87.4927 33.9778 87.4927 31.3388Z" fill="#4BE080"/>
<path d="M83.8067 43.2143H79.3037V47.5179H83.8067V43.2143Z" fill="#4ACC8A"/>
<path d="M87.4927 31.3388C87.4927 27.8472 84.8327 25.0052 81.5647 25.0052C78.2967 25.0052 75.6367 27.8472 75.6367 31.3388C75.6367 33.9778 77.1567 36.2514 79.3037 37.1852V47.5179H83.8067V37.1852C85.9727 36.2514 87.4927 33.9778 87.4927 31.3388Z" stroke="#441A36" stroke-width="6" stroke-miterlimit="10" stroke-linecap="round" stroke-linejoin="round"/>
<path d="M82.002 29.6133C83.1774 29.6133 84.13 29.0498 84.13 28.3547C84.13 27.6597 83.1774 27.0961 82.002 27.0961C80.8267 27.0961 79.874 27.6597 79.874 28.3547C79.874 29.0498 80.8267 29.6133 82.002 29.6133Z" fill="#9DEDB8"/>
<path d="M104.346 145.75C105.98 148.774 109.609 149.81 112.44 148.064C115.271 146.318 116.24 142.441 114.606 139.416C113.371 137.122 110.996 135.985 108.697 136.31L103.871 127.358L99.957 129.773L104.783 138.726C103.358 140.695 103.092 143.476 104.346 145.75Z" fill="#4BE080"/>
<path d="M103.831 127.381L99.9312 129.786L101.945 133.513L105.845 131.108L103.831 127.381Z" fill="#4ACC8A"/>
<path d="M104.346 145.75C105.98 148.774 109.609 149.81 112.44 148.064C115.271 146.318 116.24 142.441 114.606 139.416C113.371 137.122 110.996 135.985 108.697 136.31L103.871 127.358L99.957 129.773L104.783 138.726C103.358 140.695 103.092 143.476 104.346 145.75Z" stroke="#441A36" stroke-width="6" stroke-miterlimit="10" stroke-linecap="round" stroke-linejoin="round"/>
<path d="M111.068 146.494C112.086 145.866 112.647 144.869 112.322 144.267C111.997 143.665 110.908 143.686 109.89 144.314C108.872 144.941 108.311 145.939 108.636 146.541C108.962 147.142 110.05 147.122 111.068 146.494Z" fill="#9DEDB8"/>
<path d="M58.7839 36.1702C57.1499 33.1455 53.5209 32.1102 50.6899 33.856C47.8589 35.6018 46.8899 39.4791 48.5239 42.5038C49.7589 44.7977 52.1339 45.9345 54.4329 45.6097L59.2589 54.562L63.1729 52.1463L58.3469 43.194C59.7719 41.2249 60.0379 38.4438 58.7839 36.1702Z" fill="#4BE080"/>
<path d="M61.1541 48.3939L57.2544 50.7994L59.2684 54.5263L63.1681 52.1207L61.1541 48.3939Z" fill="#4ACC8A"/>
<path d="M58.7839 36.1702C57.1499 33.1455 53.5209 32.1102 50.6899 33.856C47.8589 35.6018 46.8899 39.4791 48.5239 42.5038C49.7589 44.7977 52.1339 45.9345 54.4329 45.6097L59.2589 54.562L63.1729 52.1463L58.3469 43.194C59.7719 41.2249 60.0379 38.4438 58.7839 36.1702Z" stroke="#441A36" stroke-width="6" stroke-miterlimit="10" stroke-linecap="round" stroke-linejoin="round"/>
<path d="M53.2346 37.6009C54.2524 36.9731 54.8139 35.9761 54.4886 35.3742C54.1631 34.7721 53.0744 34.7933 52.0566 35.4211C51.039 36.0488 50.4775 37.0457 50.8028 37.6478C51.1281 38.2497 52.217 38.2288 53.2346 37.6009Z" fill="#9DEDB8"/>
<path d="M126.937 126.262C129.768 128.007 133.397 126.972 135.031 123.947C136.665 120.923 135.696 117.045 132.865 115.3C130.718 113.98 128.134 114.244 126.291 115.767L117.912 110.61L115.651 114.792L124.03 119.948C123.707 122.405 124.79 124.922 126.937 126.262Z" fill="#4BE080"/>
<path d="M117.904 110.6L115.653 114.766L119.141 116.918L121.393 112.751L117.904 110.6Z" fill="#4ACC8A"/>
<path d="M126.937 126.262C129.768 128.007 133.397 126.972 135.031 123.947C136.665 120.923 135.696 117.045 132.865 115.3C130.718 113.98 128.134 114.244 126.291 115.767L117.912 110.61L115.651 114.792L124.03 119.948C123.707 122.405 124.79 124.922 126.937 126.262Z" stroke="#441A36" stroke-width="6" stroke-miterlimit="10" stroke-linecap="round" stroke-linejoin="round"/>
<path d="M36.1931 55.6582C33.3621 53.9124 29.7331 54.9477 28.0991 57.9724C26.4651 60.9971 27.4341 64.8744 30.2651 66.6202C32.4121 67.9397 34.9961 67.6758 36.8391 66.1533L45.2181 71.3095L47.4791 67.1277L39.1001 61.9715C39.4231 59.5152 38.3401 56.998 36.1931 55.6582Z" fill="#4BE080"/>
<path d="M43.9839 65.0074L41.7324 69.1738L45.2206 71.3256L47.4721 67.1592L43.9839 65.0074Z" fill="#4ACC8A"/>
<path d="M36.1931 55.6582C33.3621 53.9124 29.7331 54.9477 28.0991 57.9724C26.4651 60.9971 27.4341 64.8744 30.2651 66.6202C32.4121 67.9397 34.9961 67.6758 36.8391 66.1533L45.2181 71.3095L47.4791 67.1277L39.1001 61.9715C39.4231 59.5152 38.3401 56.998 36.1931 55.6582Z" stroke="#441A36" stroke-width="6" stroke-miterlimit="10" stroke-linecap="round" stroke-linejoin="round"/>
<path d="M32.0527 59.8786C32.6404 58.7911 32.66 57.6279 32.0966 57.2804C31.5333 56.9328 30.6002 57.5325 30.0125 58.62C29.4248 59.7074 29.4053 60.8706 29.9686 61.2182C30.532 61.5657 31.4651 60.9661 32.0527 59.8786Z" fill="#9DEDB8"/>
<path d="M137.368 97.2934C140.636 97.2934 143.296 94.4514 143.296 90.9598C143.296 87.4682 140.636 84.6262 137.368 84.6262C134.898 84.6262 132.77 86.2502 131.896 88.5441H122.225V93.3552H131.896C132.77 95.6694 134.898 97.2934 137.368 97.2934Z" fill="#4BE080"/>
<path d="M126.253 88.5442H122.225V93.3553H126.253V88.5442Z" fill="#4ACC8A"/>
<path d="M137.368 97.2934C140.636 97.2934 143.296 94.4514 143.296 90.9598C143.296 87.4682 140.636 84.6262 137.368 84.6262C134.898 84.6262 132.77 86.2502 131.896 88.5441H122.225V93.3552H131.896C132.77 95.6694 134.898 97.2934 137.368 97.2934Z" stroke="#441A36" stroke-width="6" stroke-miterlimit="10" stroke-linecap="round" stroke-linejoin="round"/>
<path d="M140.161 93.7004C140.811 93.7004 141.339 92.6826 141.339 91.4268C141.339 90.171 140.811 89.1532 140.161 89.1532C139.51 89.1532 138.983 90.171 138.983 91.4268C138.983 92.6826 139.51 93.7004 140.161 93.7004Z" fill="#9DEDB8"/>
<path d="M25.762 84.6262C22.494 84.6262 19.834 87.4682 19.834 90.9598C19.834 94.4514 22.494 97.2934 25.762 97.2934C28.232 97.2934 30.36 95.6694 31.234 93.3755H40.905V88.5644H31.234C30.36 86.2502 28.232 84.6262 25.762 84.6262Z" fill="#4BE080"/>
<path d="M40.905 88.5442H36.877V93.3553H40.905V88.5442Z" fill="#4ACC8A"/>
<path d="M25.762 84.6262C22.494 84.6262 19.834 87.4682 19.834 90.9598C19.834 94.4514 22.494 97.2934 25.762 97.2934C28.232 97.2934 30.36 95.6694 31.234 93.3755H40.905V88.5644H31.234C30.36 86.2502 28.232 84.6262 25.762 84.6262Z" stroke="#441A36" stroke-width="6" stroke-miterlimit="10" stroke-linecap="round" stroke-linejoin="round"/>
<path d="M22.969 92.7667C23.6196 92.7667 24.147 91.7488 24.147 90.4931C24.147 89.2373 23.6196 88.2195 22.969 88.2195C22.3185 88.2195 21.791 89.2373 21.791 90.4931C21.791 91.7488 22.3185 92.7667 22.969 92.7667Z" fill="#9DEDB8"/>
<path d="M132.846 66.6202C135.677 64.8744 136.646 60.9971 135.012 57.9724C133.378 54.9477 129.749 53.9124 126.918 55.6582C124.771 56.9777 123.707 59.5152 124.011 61.9715L115.632 67.1277L117.893 71.3095L126.272 66.1533C128.115 67.6758 130.718 67.96 132.846 66.6202Z" fill="#4BE080"/>
<path d="M119.132 64.996L115.644 67.1478L117.896 71.3141L121.384 69.1623L119.132 64.996Z" fill="#4ACC8A"/>
<path d="M132.846 66.6202C135.677 64.8744 136.646 60.9971 135.012 57.9724C133.378 54.9477 129.749 53.9124 126.918 55.6582C124.771 56.9777 123.707 59.5152 124.011 61.9715L115.632 67.1277L117.893 71.3095L126.272 66.1533C128.115 67.6758 130.718 67.96 132.846 66.6202Z" stroke="#441A36" stroke-width="6" stroke-miterlimit="10" stroke-linecap="round" stroke-linejoin="round"/>
<path d="M133.586 62.0308C134.149 61.6832 134.13 60.5201 133.542 59.4326C132.954 58.3453 132.021 57.7454 131.458 58.093C130.894 58.4405 130.914 59.6039 131.502 60.6912C132.089 61.7787 133.022 62.3785 133.586 62.0308Z" fill="#9DEDB8"/>
<path d="M30.2841 115.3C27.4531 117.045 26.4841 120.923 28.1181 123.947C29.7521 126.972 33.3811 128.007 36.2121 126.262C38.3591 124.942 39.4231 122.405 39.1191 119.948L47.4981 114.792L45.2371 110.61L36.8581 115.767C35.0151 114.244 32.4121 113.96 30.2841 115.3Z" fill="#4BE080"/>
<path d="M45.2035 110.593L41.7153 112.745L43.9668 116.911L47.455 114.759L45.2035 110.593Z" fill="#4ACC8A"/>
<path d="M30.2841 115.3C27.4531 117.045 26.4841 120.923 28.1181 123.947C29.7521 126.972 33.3811 128.007 36.2121 126.262C38.3591 124.942 39.4231 122.405 39.1191 119.948L47.4981 114.792L45.2371 110.61L36.8581 115.767C35.0151 114.244 32.4121 113.96 30.2841 115.3Z" stroke="#441A36" stroke-width="6" stroke-miterlimit="10" stroke-linecap="round" stroke-linejoin="round"/>
<path d="M31.667 123.822C32.2303 123.474 32.2108 122.311 31.6231 121.223C31.0354 120.136 30.1023 119.536 29.539 119.884C28.9755 120.231 28.9952 121.395 29.5829 122.482C30.1704 123.569 31.1035 124.169 31.667 123.822Z" fill="#9DEDB8"/>
<path d="M114.606 42.4835C116.24 39.4588 115.271 35.5815 112.44 33.8357C109.609 32.0899 105.98 33.1252 104.346 36.1499C103.111 38.4438 103.358 41.2046 104.783 43.1737L99.957 52.126L103.871 54.5417L108.697 45.5894C110.996 45.9345 113.352 44.7774 114.606 42.4835Z" fill="#4BE080"/>
<path d="M101.956 48.4072L99.9419 52.1341L103.841 54.5397L105.855 50.8128L101.956 48.4072Z" fill="#4ACC8A"/>
<path d="M114.606 42.4835C116.24 39.4588 115.271 35.5815 112.44 33.8357C109.609 32.0899 105.98 33.1252 104.346 36.1499C103.111 38.4438 103.358 41.2046 104.783 43.1737L99.957 52.126L103.871 54.5417L108.697 45.5894C110.996 45.9345 113.352 44.7774 114.606 42.4835Z" stroke="#441A36" stroke-width="6" stroke-miterlimit="10" stroke-linecap="round" stroke-linejoin="round"/>
<path d="M113.088 38.1121C113.413 37.5102 112.852 36.5133 111.834 35.8854C110.816 35.2575 109.727 35.2366 109.402 35.8385C109.077 36.4406 109.638 37.4376 110.656 38.0652C111.674 38.6931 112.762 38.7142 113.088 38.1121Z" fill="#9DEDB8"/>
<path d="M48.5239 139.436C46.8899 142.461 47.8589 146.338 50.6899 148.084C53.5209 149.83 57.1499 148.795 58.7839 145.77C60.0189 143.476 59.7719 140.715 58.3469 138.746L63.1729 129.794L59.2589 127.378L54.4329 136.33C52.1339 135.985 49.7779 137.142 48.5239 139.436Z" fill="#4BE080"/>
<path d="M59.2835 127.385L57.2695 131.112L61.1693 133.518L63.1833 129.791L59.2835 127.385Z" fill="#4ACC8A"/>
<path d="M48.5239 139.436C46.8899 142.461 47.8589 146.338 50.6899 148.084C53.5209 149.83 57.1499 148.795 58.7839 145.77C60.0189 143.476 59.7719 140.715 58.3469 138.746L63.1729 129.794L59.2589 127.378L54.4329 136.33C52.1339 135.985 49.7779 137.142 48.5239 139.436Z" stroke="#441A36" stroke-width="6" stroke-miterlimit="10" stroke-linecap="round" stroke-linejoin="round"/>
<path d="M53.7233 146.086C54.0486 145.485 53.4873 144.488 52.4695 143.86C51.4516 143.232 50.363 143.211 50.0377 143.813C49.7124 144.415 50.2737 145.412 51.2915 146.04C52.3093 146.667 53.398 146.688 53.7233 146.086Z" fill="#9DEDB8"/>
<path d="M81.565 135.904C104.797 135.904 123.631 115.782 123.631 90.9599C123.631 66.1379 104.797 46.0157 81.565 46.0157C58.3326 46.0157 39.499 66.1379 39.499 90.9599C39.499 115.782 58.3326 135.904 81.565 135.904Z" fill="#4BE080"/>
<path d="M109.305 57.1807C115.86 65.0977 119.831 75.5116 119.831 86.9202C119.831 111.747 101.002 131.864 77.7649 131.864C67.1439 131.864 57.4349 127.642 50.0249 120.699C57.7389 130.017 69.0059 135.884 81.5459 135.884C104.783 135.884 123.612 115.767 123.612 90.9396C123.631 77.501 118.083 65.4225 109.305 57.1807Z" fill="#4ACC8A"/>
<path d="M81.565 135.904C104.797 135.904 123.631 115.782 123.631 90.9599C123.631 66.1379 104.797 46.0157 81.565 46.0157C58.3326 46.0157 39.499 66.1379 39.499 90.9599C39.499 115.782 58.3326 135.904 81.565 135.904Z" stroke="#441A36" stroke-width="6" stroke-miterlimit="10" stroke-linecap="round" stroke-linejoin="round"/>
<path d="M53.5779 89.5185C49.4169 93.3552 47.9729 105.779 60.4369 116.112C73.9269 127.297 97.6199 125.754 106.873 112.518C111.547 105.819 111.984 95.0604 108.792 92.6447C102.389 87.7727 95.4539 95.3243 93.8579 95.8521C89.9819 97.131 84.6429 97.2731 76.9669 93.9236C67.6379 89.8636 59.4869 84.0781 53.5779 89.5185Z" fill="#441A36"/>
<path d="M76.9669 93.944C74.5349 92.8884 72.1979 91.711 69.9559 90.6554C69.6709 91.4268 69.5759 92.5433 69.6709 94.1876C69.8419 96.8672 71.7799 99.7092 74.9529 99.7092C77.4229 99.7092 78.9239 97.2935 79.5699 94.9996C78.7529 94.6748 77.8789 94.3297 76.9669 93.944Z" fill="#FFC417"/>
<path d="M64.7502 95.2432C67.5622 95.2432 69.7282 93.0914 70.3362 90.8178C66.3842 88.9502 62.7362 87.3668 59.4872 87.3059C59.4112 87.9555 59.3922 88.7472 59.4492 89.7216C59.6202 92.4012 61.5582 95.2432 64.7502 95.2432Z" fill="#FFC417"/>
<path d="M99.0638 100.947C101.8 99.9122 101.61 94.8372 101.61 91.8328C101.61 91.6907 101.61 91.5486 101.61 91.4268C98.4558 92.3606 95.7768 94.6951 94.4468 95.568C94.6178 98.4912 96.5368 101.902 99.0638 100.947Z" fill="#FFC417"/>
<path d="M107.424 91.7921C105.448 90.8177 103.453 90.8786 101.629 91.4064C101.629 91.5282 101.61 91.6703 101.61 91.8327C101.477 96.4002 102.389 98.3491 103.757 98.3491C105.524 98.3288 107.424 94.3702 107.424 91.7921Z" fill="#FFC417"/>
<path d="M76.9669 93.944C74.5349 92.8884 72.1979 91.711 69.9559 90.6554C69.6709 91.4268 69.5759 92.5433 69.6709 94.1876C69.8419 96.8672 71.7799 99.7092 74.9529 99.7092C77.4229 99.7092 78.9239 97.2935 79.5699 94.9996C78.7529 94.6748 77.8789 94.3297 76.9669 93.944Z" stroke="#441A36" stroke-width="6" stroke-miterlimit="10" stroke-linecap="round" stroke-linejoin="round"/>
<path d="M64.7502 95.2432C67.5622 95.2432 69.7282 93.0914 70.3362 90.8178C66.3842 88.9502 62.7362 87.3668 59.4872 87.3059C59.4112 87.9555 59.3922 88.7472 59.4492 89.7216C59.6202 92.4012 61.5582 95.2432 64.7502 95.2432Z" stroke="#441A36" stroke-width="6" stroke-miterlimit="10" stroke-linecap="round" stroke-linejoin="round"/>
<path d="M99.0638 100.947C101.8 99.9122 101.61 94.8372 101.61 91.8328C101.61 91.6907 101.61 91.5486 101.61 91.4268C98.4558 92.3606 95.7768 94.6951 94.4468 95.568C94.6178 98.4912 96.5368 101.902 99.0638 100.947Z" stroke="#441A36" stroke-width="6" stroke-miterlimit="10" stroke-linecap="round" stroke-linejoin="round"/>
<path d="M107.424 91.7921C105.448 90.8177 103.453 90.8786 101.629 91.4064C101.629 91.5282 101.61 91.6703 101.61 91.8327C101.477 96.4002 102.389 98.3491 103.757 98.3491C105.524 98.3288 107.424 94.3702 107.424 91.7921Z" stroke="#441A36" stroke-width="6" stroke-miterlimit="10" stroke-linecap="round" stroke-linejoin="round"/>
<path d="M53.5779 89.5185C49.4169 93.3552 47.9729 105.779 60.4369 116.112C73.9269 127.297 97.6199 125.754 106.873 112.518C111.547 105.819 111.984 95.0604 108.792 92.6447C102.389 87.7727 95.4539 95.3243 93.8579 95.8521C89.9819 97.131 84.6429 97.2731 76.9669 93.9236C67.6379 89.8636 59.4869 84.0781 53.5779 89.5185Z" stroke="#441A36" stroke-width="6" stroke-miterlimit="10" stroke-linecap="round" stroke-linejoin="round"/>
<path d="M80.3298 107.24C79.0948 107.24 77.8978 107.443 76.7768 107.849C74.5158 104.5 71.0008 102.348 67.0488 102.348C61.8998 102.348 57.4728 106.022 55.6108 111.24C56.9028 112.884 58.4988 114.528 60.4178 116.132C62.6788 118.02 65.2438 119.542 67.9798 120.699C68.1508 120.76 68.3218 120.841 68.4738 120.902C68.5498 120.943 68.6258 120.963 68.7018 121.004C69.0058 121.126 69.3288 121.247 69.6328 121.349C69.7278 121.39 69.8418 121.43 69.9558 121.471C70.2408 121.572 70.5448 121.674 70.8298 121.775C70.8868 121.796 70.9248 121.816 70.9818 121.816C71.3048 121.917 71.6278 122.019 71.9508 122.1C72.0458 122.12 72.1408 122.161 72.2358 122.181C72.5778 122.283 72.9198 122.364 73.2618 122.445C73.2808 122.445 73.3188 122.465 73.3378 122.465C73.6608 122.547 74.0028 122.628 74.3258 122.689C74.4018 122.709 74.4968 122.729 74.5728 122.75C74.9148 122.831 75.2758 122.892 75.6368 122.953C75.6748 122.953 75.6938 122.973 75.7318 122.973C76.0548 123.034 76.3968 123.095 76.7388 123.135C76.8148 123.156 76.8908 123.156 76.9668 123.176C77.3278 123.237 77.6888 123.277 78.0498 123.318C78.0688 123.318 78.0688 123.318 78.0878 123.318C83.0468 123.886 88.1198 123.501 92.7178 122.141C92.7178 121.978 92.7368 121.796 92.7368 121.633C92.6988 113.676 87.1698 107.24 80.3298 107.24Z" fill="#FF4F7C"/>
<path d="M80.3298 107.24C79.0948 107.24 77.8978 107.443 76.7768 107.849C74.5158 104.5 71.0008 102.348 67.0488 102.348C61.8998 102.348 57.4728 106.022 55.6108 111.24C56.9028 112.884 58.4988 114.528 60.4178 116.132C62.6788 118.02 65.2438 119.542 67.9798 120.699C68.1508 120.76 68.3218 120.841 68.4738 120.902C68.5498 120.943 68.6258 120.963 68.7018 121.004C69.0058 121.126 69.3288 121.247 69.6328 121.349C69.7278 121.39 69.8418 121.43 69.9558 121.471C70.2408 121.572 70.5448 121.674 70.8298 121.775C70.8868 121.796 70.9248 121.816 70.9818 121.816C71.3048 121.917 71.6278 122.019 71.9508 122.1C72.0458 122.12 72.1408 122.161 72.2358 122.181C72.5778 122.283 72.9198 122.364 73.2618 122.445C73.2808 122.445 73.3188 122.465 73.3378 122.465C73.6608 122.547 74.0028 122.628 74.3258 122.689C74.4018 122.709 74.4968 122.729 74.5728 122.75C74.9148 122.831 75.2758 122.892 75.6368 122.953C75.6748 122.953 75.6938 122.973 75.7318 122.973C76.0548 123.034 76.3968 123.095 76.7388 123.135C76.8148 123.156 76.8908 123.156 76.9668 123.176C77.3278 123.237 77.6888 123.277 78.0498 123.318C78.0688 123.318 78.0688 123.318 78.0878 123.318C83.0468 123.886 88.1198 123.501 92.7178 122.141C92.7178 121.978 92.7368 121.796 92.7368 121.633C92.6988 113.676 87.1698 107.24 80.3298 107.24Z" stroke="#441A36" stroke-width="6" stroke-miterlimit="10" stroke-linecap="round" stroke-linejoin="round"/>
<path d="M68.398 66.4984C67.049 68.5893 66.27 71.1268 66.27 73.8673C66.27 81.0941 71.742 86.9405 78.506 86.9405C83.142 86.9405 87.189 84.1797 89.26 80.1197L68.398 66.4984Z" fill="#F2F2F2"/>
<path d="M68.398 66.4984C67.049 68.5893 66.27 71.1268 66.27 73.8673C66.27 81.0941 71.742 86.9405 78.506 86.9405C83.142 86.9405 87.189 84.1797 89.26 80.1197L68.398 66.4984Z" stroke="#441A36" stroke-width="6" stroke-miterlimit="10" stroke-linecap="round" stroke-linejoin="round"/>
<path d="M73.8886 70.0712C73.2236 71.1065 72.8438 72.3651 72.8438 73.7049C72.8438 77.2777 75.5416 80.1603 78.8856 80.1603C81.1846 80.1603 83.1796 78.8002 84.1866 76.7905L73.8886 70.0712Z" stroke="#441A36" stroke-width="6" stroke-miterlimit="10" stroke-linecap="round" stroke-linejoin="round"/>
<path d="M99.102 73.1365C98.76 72.5884 98.38 72.0809 97.962 71.614L89.355 80.1603C91.977 84.3015 96.271 86.0676 98.95 84.1391C101.629 82.2106 101.705 77.2777 99.102 73.1365Z" fill="white"/>
<path d="M99.102 73.1365C98.76 72.5884 98.38 72.0809 97.962 71.614L89.355 80.1603C91.977 84.3015 96.271 86.0676 98.95 84.1391C101.629 82.2106 101.705 77.2777 99.102 73.1365Z" stroke="#441A36" stroke-width="6" stroke-miterlimit="10" stroke-linecap="round" stroke-linejoin="round"/>
<path d="M73.8886 70.0712C73.2236 71.1065 72.8438 72.3651 72.8438 73.7049C72.8438 77.2777 75.5416 80.1603 78.8856 80.1603C81.1846 80.1603 83.1796 78.8002 84.1866 76.7905L73.8886 70.0712Z" fill="#441A36"/>
<path d="M91.692 82.9008C93.611 82.779 95.131 81.0941 95.131 79.0032C95.131 77.7243 94.561 76.5875 93.668 75.877L89.355 80.1603C90.039 81.2565 90.837 82.17 91.692 82.9008Z" fill="#441A36"/>
<path d="M91.692 82.9008C93.611 82.779 95.131 81.0941 95.131 79.0032C95.131 77.7243 94.561 76.5875 93.668 75.877L89.355 80.1603C90.039 81.2565 90.837 82.17 91.692 82.9008Z" stroke="#441A36" stroke-width="6" stroke-miterlimit="10" stroke-linecap="round" stroke-linejoin="round"/>
<path d="M79.912 60.043C81.7274 60.043 83.199 58.4706 83.199 56.5311C83.199 54.5915 81.7274 53.0192 79.912 53.0192C78.0965 53.0192 76.625 54.5915 76.625 56.5311C76.625 58.4706 78.0965 60.043 79.912 60.043Z" fill="#9DEDB8"/>
<path d="M99.9379 61.3828C101.753 61.3828 103.225 59.8104 103.225 57.8709C103.225 55.9312 101.753 54.359 99.9379 54.359C98.1224 54.359 96.6509 55.9312 96.6509 57.8709C96.6509 59.8104 98.1224 61.3828 99.9379 61.3828Z" fill="#9DEDB8"/>
<path d="M66.2892 62.479C67.4539 62.479 68.3982 61.4701 68.3982 60.2257C68.3982 58.9813 67.4539 57.9724 66.2892 57.9724C65.1245 57.9724 64.1802 58.9813 64.1802 60.2257C64.1802 61.4701 65.1245 62.479 66.2892 62.479Z" fill="#9DEDB8"/>
<path d="M54.756 77.3589C55.9209 77.3589 56.865 76.35 56.865 75.1056C56.865 73.8612 55.9209 72.8523 54.756 72.8523C53.5913 72.8523 52.647 73.8612 52.647 75.1056C52.647 76.35 53.5913 77.3589 54.756 77.3589Z" fill="#9DEDB8"/>
<path d="M111.243 79.3888C111.83 79.3888 112.307 78.8799 112.307 78.252C112.307 77.6242 111.83 77.1152 111.243 77.1152C110.655 77.1152 110.179 77.6242 110.179 78.252C110.179 78.8799 110.655 79.3888 111.243 79.3888Z" fill="#9DEDB8"/>
<path d="M91.6538 66.1939C92.2415 66.1939 92.7178 65.685 92.7178 65.0571C92.7178 64.4292 92.2415 63.9203 91.6538 63.9203C91.0662 63.9203 90.5898 64.4292 90.5898 65.0571C90.5898 65.685 91.0662 66.1939 91.6538 66.1939Z" fill="#9DEDB8"/>
<path d="M141.32 24.0308C146.756 24.0308 151.162 19.3228 151.162 13.5154C151.162 7.70792 146.756 3 141.32 3C135.885 3 131.478 7.70792 131.478 13.5154C131.478 19.3228 135.885 24.0308 141.32 24.0308Z" fill="#4BE080"/>
<path d="M145.899 4.21802C147.913 6.12622 149.205 8.94792 149.205 12.0741C149.205 17.8799 144.797 22.5895 139.363 22.5895C137.71 22.5895 136.171 22.1632 134.803 21.3918C136.532 23.0361 138.831 24.0511 141.339 24.0511C146.773 24.0511 151.181 19.3415 151.181 13.5357C151.162 9.47572 149.034 5.96382 145.899 4.21802Z" fill="#4ACC8A"/>
<path d="M141.32 24.0308C146.756 24.0308 151.162 19.3228 151.162 13.5154C151.162 7.70792 146.756 3 141.32 3C135.885 3 131.478 7.70792 131.478 13.5154C131.478 19.3228 135.885 24.0308 141.32 24.0308Z" stroke="#441A36" stroke-width="6" stroke-miterlimit="10" stroke-linecap="round" stroke-linejoin="round"/>
<path d="M141.396 28.1923V24.4774" stroke="#441A36" stroke-width="6" stroke-miterlimit="10" stroke-linecap="round" stroke-linejoin="round"/>
<path d="M141.32 29.6539C142.076 29.6539 142.688 28.9994 142.688 28.1923C142.688 27.3852 142.076 26.7307 141.32 26.7307C140.565 26.7307 139.952 27.3852 139.952 28.1923C139.952 28.9994 140.565 29.6539 141.32 29.6539Z" fill="#441A36"/>
<path d="M132.255 28.2029L130.507 24.9752" stroke="#441A36" stroke-width="6" stroke-miterlimit="10" stroke-linecap="round" stroke-linejoin="round"/>
<path d="M132.198 29.7051C132.954 29.7051 133.566 29.0506 133.566 28.2435C133.566 27.4364 132.954 26.7819 132.198 26.7819C131.443 26.7819 130.83 27.4364 130.83 28.2435C130.83 29.0506 131.443 29.7051 132.198 29.7051Z" fill="#441A36"/>
<path d="M137.252 22.8031L134.25 20.9355" stroke="#441A36" stroke-width="6" stroke-miterlimit="10" stroke-linecap="round" stroke-linejoin="round"/>
<path d="M127.583 13.5966H131.06" stroke="#441A36" stroke-width="6" stroke-miterlimit="10" stroke-linecap="round" stroke-linejoin="round"/>
<path d="M127.583 14.977C128.338 14.977 128.951 14.3225 128.951 13.5154C128.951 12.7082 128.338 12.0538 127.583 12.0538C126.827 12.0538 126.215 12.7082 126.215 13.5154C126.215 14.3225 126.827 14.977 127.583 14.977Z" fill="#441A36"/>
<path d="M139.076 15.4545H135.58" stroke="#441A36" stroke-width="6" stroke-miterlimit="10" stroke-linecap="round" stroke-linejoin="round"/>
<path d="M129.464 20.9249L132.485 19.0573" stroke="#441A36" stroke-width="6" stroke-miterlimit="10" stroke-linecap="round" stroke-linejoin="round"/>
<path d="M129.426 22.3256C130.182 22.3256 130.794 21.6713 130.794 20.864C130.794 20.0569 130.182 19.4024 129.426 19.4024C128.671 19.4024 128.058 20.0569 128.058 20.864C128.058 21.6713 128.671 22.3256 129.426 22.3256Z" fill="#441A36"/>
<path d="M134.518 26.2638L136.247 23.0564" stroke="#441A36" stroke-width="6" stroke-miterlimit="10" stroke-linecap="round" stroke-linejoin="round"/>
<path d="M134.461 27.7051C135.216 27.7051 135.829 27.0506 135.829 26.2435C135.829 25.4364 135.216 24.7819 134.461 24.7819C133.705 24.7819 133.093 25.4364 133.093 26.2435C133.093 27.0506 133.705 27.7051 134.461 27.7051Z" fill="#441A36"/>
<path d="M138.052 20.5798C139.112 20.5798 139.971 19.6618 139.971 18.5295C139.971 17.3972 139.112 16.4792 138.052 16.4792C136.992 16.4792 136.133 17.3972 136.133 18.5295C136.133 19.6618 136.992 20.5798 138.052 20.5798Z" fill="#9DEDB8"/>
<path d="M139.363 13.0891C139.888 13.0891 140.313 12.6346 140.313 12.0741C140.313 11.5136 139.888 11.0591 139.363 11.0591C138.838 11.0591 138.413 11.5136 138.413 12.0741C138.413 12.6346 138.838 13.0891 139.363 13.0891Z" fill="#9DEDB8"/>
<path d="M143.296 12.6222C143.968 12.6222 144.512 12.0406 144.512 11.323C144.512 10.6054 143.968 10.0238 143.296 10.0238C142.624 10.0238 142.08 10.6054 142.08 11.323C142.08 12.0406 142.624 12.6222 143.296 12.6222Z" fill="#4ACC8A"/>
<path d="M9.574 156.488C13.2047 156.488 16.148 153.344 16.148 149.464C16.148 145.585 13.2047 142.441 9.574 142.441C5.94329 142.441 3 145.585 3 149.464C3 153.344 5.94329 156.488 9.574 156.488Z" fill="#4BE080"/>
<path d="M12.6331 143.232C13.9821 144.511 14.8371 146.399 14.8371 148.49C14.8371 152.367 11.8921 155.514 8.26311 155.514C7.16111 155.514 6.13511 155.23 5.22314 154.722C6.38211 155.818 7.90211 156.488 9.59311 156.488C13.2221 156.488 16.1671 153.342 16.1671 149.465C16.1481 146.744 14.7231 144.41 12.6331 143.232Z" fill="#4ACC8A"/>
<path d="M9.574 156.488C13.2047 156.488 16.148 153.344 16.148 149.464C16.148 145.585 13.2047 142.441 9.574 142.441C5.94329 142.441 3 145.585 3 149.464C3 153.344 5.94329 156.488 9.574 156.488Z" stroke="#441A36" stroke-width="6" stroke-miterlimit="10" stroke-linecap="round" stroke-linejoin="round"/>
<path d="M17.4969 144.511L15.4829 145.75" stroke="#441A36" stroke-width="6" stroke-miterlimit="10" stroke-linecap="round" stroke-linejoin="round"/>
<path d="M17.516 145.526C18.0197 145.526 18.428 145.09 18.428 144.552C18.428 144.014 18.0197 143.578 17.516 143.578C17.0123 143.578 16.604 144.014 16.604 144.552C16.604 145.09 17.0123 145.526 17.516 145.526Z" fill="#441A36"/>
<path d="M14.1341 140.938L12.9751 143.09" stroke="#441A36" stroke-width="6" stroke-miterlimit="10" stroke-linecap="round" stroke-linejoin="round"/>
<path d="M14.1718 141.933C14.6755 141.933 15.0838 141.497 15.0838 140.959C15.0838 140.421 14.6755 139.984 14.1718 139.984C13.6681 139.984 13.2598 140.421 13.2598 140.959C13.2598 141.497 13.6681 141.933 14.1718 141.933Z" fill="#441A36"/>
<path d="M165.57 70.7975C165.931 70.7975 165.931 70.1885 165.57 70.1885C165.19 70.1885 165.19 70.7975 165.57 70.7975Z" fill="#4ACC8A"/>
<path d="M75.6367 150.581C75.6367 154.073 78.2967 156.915 81.5647 156.915C84.8327 156.915 87.4927 154.073 87.4927 150.581C87.4927 147.942 85.9727 145.668 83.8257 144.735V134.402H79.3227V144.735C77.1567 145.668 75.6367 147.942 75.6367 150.581Z" fill="#4BE080"/>
<path d="M83.8067 134.402H79.3037V138.705H83.8067V134.402Z" fill="#4ACC8A"/>
<path d="M75.6367 150.581C75.6367 154.073 78.2967 156.915 81.5647 156.915C84.8327 156.915 87.4927 154.073 87.4927 150.581C87.4927 147.942 85.9727 145.668 83.8257 144.735V134.402H79.3227V144.735C77.1567 145.668 75.6367 147.942 75.6367 150.581Z" stroke="#441A36" stroke-width="6" stroke-miterlimit="10" stroke-linecap="round" stroke-linejoin="round"/>
<path d="M87.4927 31.3388C87.4927 27.8472 84.8327 25.0052 81.5647 25.0052C78.2967 25.0052 75.6367 27.8472 75.6367 31.3388C75.6367 33.9778 77.1567 36.2514 79.3037 37.1852V47.5179H83.8067V37.1852C85.9727 36.2514 87.4927 33.9778 87.4927 31.3388Z" fill="#4BE080"/>
<path d="M83.8067 43.2143H79.3037V47.5179H83.8067V43.2143Z" fill="#4ACC8A"/>
<path d="M87.4927 31.3388C87.4927 27.8472 84.8327 25.0052 81.5647 25.0052C78.2967 25.0052 75.6367 27.8472 75.6367 31.3388C75.6367 33.9778 77.1567 36.2514 79.3037 37.1852V47.5179H83.8067V37.1852C85.9727 36.2514 87.4927 33.9778 87.4927 31.3388Z" stroke="#441A36" stroke-width="6" stroke-miterlimit="10" stroke-linecap="round" stroke-linejoin="round"/>
<path d="M82.002 29.6133C83.1774 29.6133 84.13 29.0498 84.13 28.3547C84.13 27.6597 83.1774 27.0961 82.002 27.0961C80.8267 27.0961 79.874 27.6597 79.874 28.3547C79.874 29.0498 80.8267 29.6133 82.002 29.6133Z" fill="#9DEDB8"/>
<path d="M104.346 145.75C105.98 148.774 109.609 149.81 112.44 148.064C115.271 146.318 116.24 142.441 114.606 139.416C113.371 137.122 110.996 135.985 108.697 136.31L103.871 127.358L99.957 129.773L104.783 138.726C103.358 140.695 103.092 143.476 104.346 145.75Z" fill="#4BE080"/>
<path d="M103.831 127.381L99.9312 129.786L101.945 133.513L105.845 131.108L103.831 127.381Z" fill="#4ACC8A"/>
<path d="M104.346 145.75C105.98 148.774 109.609 149.81 112.44 148.064C115.271 146.318 116.24 142.441 114.606 139.416C113.371 137.122 110.996 135.985 108.697 136.31L103.871 127.358L99.957 129.773L104.783 138.726C103.358 140.695 103.092 143.476 104.346 145.75Z" stroke="#441A36" stroke-width="6" stroke-miterlimit="10" stroke-linecap="round" stroke-linejoin="round"/>
<path d="M111.068 146.494C112.086 145.866 112.647 144.869 112.322 144.267C111.997 143.665 110.908 143.686 109.89 144.314C108.872 144.941 108.311 145.939 108.636 146.541C108.962 147.142 110.05 147.122 111.068 146.494Z" fill="#9DEDB8"/>
<path d="M58.7839 36.1702C57.1499 33.1455 53.5209 32.1102 50.6899 33.856C47.8589 35.6018 46.8899 39.4791 48.5239 42.5038C49.7589 44.7977 52.1339 45.9345 54.4329 45.6097L59.2589 54.562L63.1729 52.1463L58.3469 43.194C59.7719 41.2249 60.0379 38.4438 58.7839 36.1702Z" fill="#4BE080"/>
<path d="M61.1541 48.3939L57.2544 50.7994L59.2684 54.5263L63.1681 52.1207L61.1541 48.3939Z" fill="#4ACC8A"/>
<path d="M58.7839 36.1702C57.1499 33.1455 53.5209 32.1102 50.6899 33.856C47.8589 35.6018 46.8899 39.4791 48.5239 42.5038C49.7589 44.7977 52.1339 45.9345 54.4329 45.6097L59.2589 54.562L63.1729 52.1463L58.3469 43.194C59.7719 41.2249 60.0379 38.4438 58.7839 36.1702Z" stroke="#441A36" stroke-width="6" stroke-miterlimit="10" stroke-linecap="round" stroke-linejoin="round"/>
<path d="M53.2346 37.6009C54.2524 36.9731 54.8139 35.9761 54.4886 35.3742C54.1631 34.7721 53.0744 34.7933 52.0566 35.4211C51.039 36.0488 50.4775 37.0457 50.8028 37.6478C51.1281 38.2497 52.217 38.2288 53.2346 37.6009Z" fill="#9DEDB8"/>
<path d="M126.937 126.262C129.768 128.007 133.397 126.972 135.031 123.947C136.665 120.923 135.696 117.045 132.865 115.3C130.718 113.98 128.134 114.244 126.291 115.767L117.912 110.61L115.651 114.792L124.03 119.948C123.707 122.405 124.79 124.922 126.937 126.262Z" fill="#4BE080"/>
<path d="M117.904 110.6L115.653 114.766L119.141 116.918L121.393 112.751L117.904 110.6Z" fill="#4ACC8A"/>
<path d="M126.937 126.262C129.768 128.007 133.397 126.972 135.031 123.947C136.665 120.923 135.696 117.045 132.865 115.3C130.718 113.98 128.134 114.244 126.291 115.767L117.912 110.61L115.651 114.792L124.03 119.948C123.707 122.405 124.79 124.922 126.937 126.262Z" stroke="#441A36" stroke-width="6" stroke-miterlimit="10" stroke-linecap="round" stroke-linejoin="round"/>
<path d="M36.1931 55.6582C33.3621 53.9124 29.7331 54.9477 28.0991 57.9724C26.4651 60.9971 27.4341 64.8744 30.2651 66.6202C32.4121 67.9397 34.9961 67.6758 36.8391 66.1533L45.2181 71.3095L47.4791 67.1277L39.1001 61.9715C39.4231 59.5152 38.3401 56.998 36.1931 55.6582Z" fill="#4BE080"/>
<path d="M43.9839 65.0074L41.7324 69.1738L45.2206 71.3256L47.4721 67.1592L43.9839 65.0074Z" fill="#4ACC8A"/>
<path d="M36.1931 55.6582C33.3621 53.9124 29.7331 54.9477 28.0991 57.9724C26.4651 60.9971 27.4341 64.8744 30.2651 66.6202C32.4121 67.9397 34.9961 67.6758 36.8391 66.1533L45.2181 71.3095L47.4791 67.1277L39.1001 61.9715C39.4231 59.5152 38.3401 56.998 36.1931 55.6582Z" stroke="#441A36" stroke-width="6" stroke-miterlimit="10" stroke-linecap="round" stroke-linejoin="round"/>
<path d="M32.0527 59.8786C32.6404 58.7911 32.66 57.6279 32.0966 57.2804C31.5333 56.9328 30.6002 57.5325 30.0125 58.62C29.4248 59.7074 29.4053 60.8706 29.9686 61.2182C30.532 61.5657 31.4651 60.9661 32.0527 59.8786Z" fill="#9DEDB8"/>
<path d="M137.368 97.2934C140.636 97.2934 143.296 94.4514 143.296 90.9598C143.296 87.4682 140.636 84.6262 137.368 84.6262C134.898 84.6262 132.77 86.2502 131.896 88.5441H122.225V93.3552H131.896C132.77 95.6694 134.898 97.2934 137.368 97.2934Z" fill="#4BE080"/>
<path d="M126.253 88.5442H122.225V93.3553H126.253V88.5442Z" fill="#4ACC8A"/>
<path d="M137.368 97.2934C140.636 97.2934 143.296 94.4514 143.296 90.9598C143.296 87.4682 140.636 84.6262 137.368 84.6262C134.898 84.6262 132.77 86.2502 131.896 88.5441H122.225V93.3552H131.896C132.77 95.6694 134.898 97.2934 137.368 97.2934Z" stroke="#441A36" stroke-width="6" stroke-miterlimit="10" stroke-linecap="round" stroke-linejoin="round"/>
<path d="M140.161 93.7004C140.811 93.7004 141.339 92.6826 141.339 91.4268C141.339 90.171 140.811 89.1532 140.161 89.1532C139.51 89.1532 138.983 90.171 138.983 91.4268C138.983 92.6826 139.51 93.7004 140.161 93.7004Z" fill="#9DEDB8"/>
<path d="M25.762 84.6262C22.494 84.6262 19.834 87.4682 19.834 90.9598C19.834 94.4514 22.494 97.2934 25.762 97.2934C28.232 97.2934 30.36 95.6694 31.234 93.3755H40.905V88.5644H31.234C30.36 86.2502 28.232 84.6262 25.762 84.6262Z" fill="#4BE080"/>
<path d="M40.905 88.5442H36.877V93.3553H40.905V88.5442Z" fill="#4ACC8A"/>
<path d="M25.762 84.6262C22.494 84.6262 19.834 87.4682 19.834 90.9598C19.834 94.4514 22.494 97.2934 25.762 97.2934C28.232 97.2934 30.36 95.6694 31.234 93.3755H40.905V88.5644H31.234C30.36 86.2502 28.232 84.6262 25.762 84.6262Z" stroke="#441A36" stroke-width="6" stroke-miterlimit="10" stroke-linecap="round" stroke-linejoin="round"/>
<path d="M22.969 92.7667C23.6196 92.7667 24.147 91.7488 24.147 90.4931C24.147 89.2373 23.6196 88.2195 22.969 88.2195C22.3185 88.2195 21.791 89.2373 21.791 90.4931C21.791 91.7488 22.3185 92.7667 22.969 92.7667Z" fill="#9DEDB8"/>
<path d="M132.846 66.6202C135.677 64.8744 136.646 60.9971 135.012 57.9724C133.378 54.9477 129.749 53.9124 126.918 55.6582C124.771 56.9777 123.707 59.5152 124.011 61.9715L115.632 67.1277L117.893 71.3095L126.272 66.1533C128.115 67.6758 130.718 67.96 132.846 66.6202Z" fill="#4BE080"/>
<path d="M119.132 64.996L115.644 67.1478L117.896 71.3141L121.384 69.1623L119.132 64.996Z" fill="#4ACC8A"/>
<path d="M132.846 66.6202C135.677 64.8744 136.646 60.9971 135.012 57.9724C133.378 54.9477 129.749 53.9124 126.918 55.6582C124.771 56.9777 123.707 59.5152 124.011 61.9715L115.632 67.1277L117.893 71.3095L126.272 66.1533C128.115 67.6758 130.718 67.96 132.846 66.6202Z" stroke="#441A36" stroke-width="6" stroke-miterlimit="10" stroke-linecap="round" stroke-linejoin="round"/>
<path d="M133.586 62.0308C134.149 61.6832 134.13 60.5201 133.542 59.4326C132.954 58.3453 132.021 57.7454 131.458 58.093C130.894 58.4405 130.914 59.6039 131.502 60.6912C132.089 61.7787 133.022 62.3785 133.586 62.0308Z" fill="#9DEDB8"/>
<path d="M30.2841 115.3C27.4531 117.045 26.4841 120.923 28.1181 123.947C29.7521 126.972 33.3811 128.007 36.2121 126.262C38.3591 124.942 39.4231 122.405 39.1191 119.948L47.4981 114.792L45.2371 110.61L36.8581 115.767C35.0151 114.244 32.4121 113.96 30.2841 115.3Z" fill="#4BE080"/>
<path d="M45.2035 110.593L41.7153 112.745L43.9668 116.911L47.455 114.759L45.2035 110.593Z" fill="#4ACC8A"/>
<path d="M30.2841 115.3C27.4531 117.045 26.4841 120.923 28.1181 123.947C29.7521 126.972 33.3811 128.007 36.2121 126.262C38.3591 124.942 39.4231 122.405 39.1191 119.948L47.4981 114.792L45.2371 110.61L36.8581 115.767C35.0151 114.244 32.4121 113.96 30.2841 115.3Z" stroke="#441A36" stroke-width="6" stroke-miterlimit="10" stroke-linecap="round" stroke-linejoin="round"/>
<path d="M31.667 123.822C32.2303 123.474 32.2108 122.311 31.6231 121.223C31.0354 120.136 30.1023 119.536 29.539 119.884C28.9755 120.231 28.9952 121.395 29.5829 122.482C30.1704 123.569 31.1035 124.169 31.667 123.822Z" fill="#9DEDB8"/>
<path d="M114.606 42.4835C116.24 39.4588 115.271 35.5815 112.44 33.8357C109.609 32.0899 105.98 33.1252 104.346 36.1499C103.111 38.4438 103.358 41.2046 104.783 43.1737L99.957 52.126L103.871 54.5417L108.697 45.5894C110.996 45.9345 113.352 44.7774 114.606 42.4835Z" fill="#4BE080"/>
<path d="M101.956 48.4072L99.9419 52.1341L103.841 54.5397L105.855 50.8128L101.956 48.4072Z" fill="#4ACC8A"/>
<path d="M114.606 42.4835C116.24 39.4588 115.271 35.5815 112.44 33.8357C109.609 32.0899 105.98 33.1252 104.346 36.1499C103.111 38.4438 103.358 41.2046 104.783 43.1737L99.957 52.126L103.871 54.5417L108.697 45.5894C110.996 45.9345 113.352 44.7774 114.606 42.4835Z" stroke="#441A36" stroke-width="6" stroke-miterlimit="10" stroke-linecap="round" stroke-linejoin="round"/>
<path d="M113.088 38.1121C113.413 37.5102 112.852 36.5133 111.834 35.8854C110.816 35.2575 109.727 35.2366 109.402 35.8385C109.077 36.4406 109.638 37.4376 110.656 38.0652C111.674 38.6931 112.762 38.7142 113.088 38.1121Z" fill="#9DEDB8"/>
<path d="M48.5239 139.436C46.8899 142.461 47.8589 146.338 50.6899 148.084C53.5209 149.83 57.1499 148.795 58.7839 145.77C60.0189 143.476 59.7719 140.715 58.3469 138.746L63.1729 129.794L59.2589 127.378L54.4329 136.33C52.1339 135.985 49.7779 137.142 48.5239 139.436Z" fill="#4BE080"/>
<path d="M59.2835 127.385L57.2695 131.112L61.1693 133.518L63.1833 129.791L59.2835 127.385Z" fill="#4ACC8A"/>
<path d="M48.5239 139.436C46.8899 142.461 47.8589 146.338 50.6899 148.084C53.5209 149.83 57.1499 148.795 58.7839 145.77C60.0189 143.476 59.7719 140.715 58.3469 138.746L63.1729 129.794L59.2589 127.378L54.4329 136.33C52.1339 135.985 49.7779 137.142 48.5239 139.436Z" stroke="#441A36" stroke-width="6" stroke-miterlimit="10" stroke-linecap="round" stroke-linejoin="round"/>
<path d="M53.7233 146.086C54.0486 145.485 53.4873 144.488 52.4695 143.86C51.4516 143.232 50.363 143.211 50.0377 143.813C49.7124 144.415 50.2737 145.412 51.2915 146.04C52.3093 146.667 53.398 146.688 53.7233 146.086Z" fill="#9DEDB8"/>
<path d="M81.565 135.904C104.797 135.904 123.631 115.782 123.631 90.9599C123.631 66.1379 104.797 46.0157 81.565 46.0157C58.3326 46.0157 39.499 66.1379 39.499 90.9599C39.499 115.782 58.3326 135.904 81.565 135.904Z" fill="#4BE080"/>
<path d="M109.305 57.1807C115.86 65.0977 119.831 75.5116 119.831 86.9202C119.831 111.747 101.002 131.864 77.7649 131.864C67.1439 131.864 57.4349 127.642 50.0249 120.699C57.7389 130.017 69.0059 135.884 81.5459 135.884C104.783 135.884 123.612 115.767 123.612 90.9396C123.631 77.501 118.083 65.4225 109.305 57.1807Z" fill="#4ACC8A"/>
<path d="M81.565 135.904C104.797 135.904 123.631 115.782 123.631 90.9599C123.631 66.1379 104.797 46.0157 81.565 46.0157C58.3326 46.0157 39.499 66.1379 39.499 90.9599C39.499 115.782 58.3326 135.904 81.565 135.904Z" stroke="#441A36" stroke-width="6" stroke-miterlimit="10" stroke-linecap="round" stroke-linejoin="round"/>
<path d="M53.5779 89.5185C49.4169 93.3552 47.9729 105.779 60.4369 116.112C73.9269 127.297 97.6199 125.754 106.873 112.518C111.547 105.819 111.984 95.0604 108.792 92.6447C102.389 87.7727 95.4539 95.3243 93.8579 95.8521C89.9819 97.131 84.6429 97.2731 76.9669 93.9236C67.6379 89.8636 59.4869 84.0781 53.5779 89.5185Z" fill="#441A36"/>
<path d="M76.9669 93.944C74.5349 92.8884 72.1979 91.711 69.9559 90.6554C69.6709 91.4268 69.5759 92.5433 69.6709 94.1876C69.8419 96.8672 71.7799 99.7092 74.9529 99.7092C77.4229 99.7092 78.9239 97.2935 79.5699 94.9996C78.7529 94.6748 77.8789 94.3297 76.9669 93.944Z" fill="#FFC417"/>
<path d="M64.7502 95.2432C67.5622 95.2432 69.7282 93.0914 70.3362 90.8178C66.3842 88.9502 62.7362 87.3668 59.4872 87.3059C59.4112 87.9555 59.3922 88.7472 59.4492 89.7216C59.6202 92.4012 61.5582 95.2432 64.7502 95.2432Z" fill="#FFC417"/>
<path d="M99.0638 100.947C101.8 99.9122 101.61 94.8372 101.61 91.8328C101.61 91.6907 101.61 91.5486 101.61 91.4268C98.4558 92.3606 95.7768 94.6951 94.4468 95.568C94.6178 98.4912 96.5368 101.902 99.0638 100.947Z" fill="#FFC417"/>
<path d="M107.424 91.7921C105.448 90.8177 103.453 90.8786 101.629 91.4064C101.629 91.5282 101.61 91.6703 101.61 91.8327C101.477 96.4002 102.389 98.3491 103.757 98.3491C105.524 98.3288 107.424 94.3702 107.424 91.7921Z" fill="#FFC417"/>
<path d="M76.9669 93.944C74.5349 92.8884 72.1979 91.711 69.9559 90.6554C69.6709 91.4268 69.5759 92.5433 69.6709 94.1876C69.8419 96.8672 71.7799 99.7092 74.9529 99.7092C77.4229 99.7092 78.9239 97.2935 79.5699 94.9996C78.7529 94.6748 77.8789 94.3297 76.9669 93.944Z" stroke="#441A36" stroke-width="6" stroke-miterlimit="10" stroke-linecap="round" stroke-linejoin="round"/>
<path d="M64.7502 95.2432C67.5622 95.2432 69.7282 93.0914 70.3362 90.8178C66.3842 88.9502 62.7362 87.3668 59.4872 87.3059C59.4112 87.9555 59.3922 88.7472 59.4492 89.7216C59.6202 92.4012 61.5582 95.2432 64.7502 95.2432Z" stroke="#441A36" stroke-width="6" stroke-miterlimit="10" stroke-linecap="round" stroke-linejoin="round"/>
<path d="M99.0638 100.947C101.8 99.9122 101.61 94.8372 101.61 91.8328C101.61 91.6907 101.61 91.5486 101.61 91.4268C98.4558 92.3606 95.7768 94.6951 94.4468 95.568C94.6178 98.4912 96.5368 101.902 99.0638 100.947Z" stroke="#441A36" stroke-width="6" stroke-miterlimit="10" stroke-linecap="round" stroke-linejoin="round"/>
<path d="M107.424 91.7921C105.448 90.8177 103.453 90.8786 101.629 91.4064C101.629 91.5282 101.61 91.6703 101.61 91.8327C101.477 96.4002 102.389 98.3491 103.757 98.3491C105.524 98.3288 107.424 94.3702 107.424 91.7921Z" stroke="#441A36" stroke-width="6" stroke-miterlimit="10" stroke-linecap="round" stroke-linejoin="round"/>
<path d="M53.5779 89.5185C49.4169 93.3552 47.9729 105.779 60.4369 116.112C73.9269 127.297 97.6199 125.754 106.873 112.518C111.547 105.819 111.984 95.0604 108.792 92.6447C102.389 87.7727 95.4539 95.3243 93.8579 95.8521C89.9819 97.131 84.6429 97.2731 76.9669 93.9236C67.6379 89.8636 59.4869 84.0781 53.5779 89.5185Z" stroke="#441A36" stroke-width="6" stroke-miterlimit="10" stroke-linecap="round" stroke-linejoin="round"/>
<path d="M80.3298 107.24C79.0948 107.24 77.8978 107.443 76.7768 107.849C74.5158 104.5 71.0008 102.348 67.0488 102.348C61.8998 102.348 57.4728 106.022 55.6108 111.24C56.9028 112.884 58.4988 114.528 60.4178 116.132C62.6788 118.02 65.2438 119.542 67.9798 120.699C68.1508 120.76 68.3218 120.841 68.4738 120.902C68.5498 120.943 68.6258 120.963 68.7018 121.004C69.0058 121.126 69.3288 121.247 69.6328 121.349C69.7278 121.39 69.8418 121.43 69.9558 121.471C70.2408 121.572 70.5448 121.674 70.8298 121.775C70.8868 121.796 70.9248 121.816 70.9818 121.816C71.3048 121.917 71.6278 122.019 71.9508 122.1C72.0458 122.12 72.1408 122.161 72.2358 122.181C72.5778 122.283 72.9198 122.364 73.2618 122.445C73.2808 122.445 73.3188 122.465 73.3378 122.465C73.6608 122.547 74.0028 122.628 74.3258 122.689C74.4018 122.709 74.4968 122.729 74.5728 122.75C74.9148 122.831 75.2758 122.892 75.6368 122.953C75.6748 122.953 75.6938 122.973 75.7318 122.973C76.0548 123.034 76.3968 123.095 76.7388 123.135C76.8148 123.156 76.8908 123.156 76.9668 123.176C77.3278 123.237 77.6888 123.277 78.0498 123.318C78.0688 123.318 78.0688 123.318 78.0878 123.318C83.0468 123.886 88.1198 123.501 92.7178 122.141C92.7178 121.978 92.7368 121.796 92.7368 121.633C92.6988 113.676 87.1698 107.24 80.3298 107.24Z" fill="#FF4F7C"/>
<path d="M80.3298 107.24C79.0948 107.24 77.8978 107.443 76.7768 107.849C74.5158 104.5 71.0008 102.348 67.0488 102.348C61.8998 102.348 57.4728 106.022 55.6108 111.24C56.9028 112.884 58.4988 114.528 60.4178 116.132C62.6788 118.02 65.2438 119.542 67.9798 120.699C68.1508 120.76 68.3218 120.841 68.4738 120.902C68.5498 120.943 68.6258 120.963 68.7018 121.004C69.0058 121.126 69.3288 121.247 69.6328 121.349C69.7278 121.39 69.8418 121.43 69.9558 121.471C70.2408 121.572 70.5448 121.674 70.8298 121.775C70.8868 121.796 70.9248 121.816 70.9818 121.816C71.3048 121.917 71.6278 122.019 71.9508 122.1C72.0458 122.12 72.1408 122.161 72.2358 122.181C72.5778 122.283 72.9198 122.364 73.2618 122.445C73.2808 122.445 73.3188 122.465 73.3378 122.465C73.6608 122.547 74.0028 122.628 74.3258 122.689C74.4018 122.709 74.4968 122.729 74.5728 122.75C74.9148 122.831 75.2758 122.892 75.6368 122.953C75.6748 122.953 75.6938 122.973 75.7318 122.973C76.0548 123.034 76.3968 123.095 76.7388 123.135C76.8148 123.156 76.8908 123.156 76.9668 123.176C77.3278 123.237 77.6888 123.277 78.0498 123.318C78.0688 123.318 78.0688 123.318 78.0878 123.318C83.0468 123.886 88.1198 123.501 92.7178 122.141C92.7178 121.978 92.7368 121.796 92.7368 121.633C92.6988 113.676 87.1698 107.24 80.3298 107.24Z" stroke="#441A36" stroke-width="6" stroke-miterlimit="10" stroke-linecap="round" stroke-linejoin="round"/>
<path d="M68.398 66.4984C67.049 68.5893 66.27 71.1268 66.27 73.8673C66.27 81.0941 71.742 86.9405 78.506 86.9405C83.142 86.9405 87.189 84.1797 89.26 80.1197L68.398 66.4984Z" fill="#F2F2F2"/>
<path d="M68.398 66.4984C67.049 68.5893 66.27 71.1268 66.27 73.8673C66.27 81.0941 71.742 86.9405 78.506 86.9405C83.142 86.9405 87.189 84.1797 89.26 80.1197L68.398 66.4984Z" stroke="#441A36" stroke-width="6" stroke-miterlimit="10" stroke-linecap="round" stroke-linejoin="round"/>
<path d="M73.8886 70.0712C73.2236 71.1065 72.8438 72.3651 72.8438 73.7049C72.8438 77.2777 75.5416 80.1603 78.8856 80.1603C81.1846 80.1603 83.1796 78.8002 84.1866 76.7905L73.8886 70.0712Z" stroke="#441A36" stroke-width="6" stroke-miterlimit="10" stroke-linecap="round" stroke-linejoin="round"/>
<path d="M99.102 73.1365C98.76 72.5884 98.38 72.0809 97.962 71.614L89.355 80.1603C91.977 84.3015 96.271 86.0676 98.95 84.1391C101.629 82.2106 101.705 77.2777 99.102 73.1365Z" fill="white"/>
<path d="M99.102 73.1365C98.76 72.5884 98.38 72.0809 97.962 71.614L89.355 80.1603C91.977 84.3015 96.271 86.0676 98.95 84.1391C101.629 82.2106 101.705 77.2777 99.102 73.1365Z" stroke="#441A36" stroke-width="6" stroke-miterlimit="10" stroke-linecap="round" stroke-linejoin="round"/>
<path d="M73.8886 70.0712C73.2236 71.1065 72.8438 72.3651 72.8438 73.7049C72.8438 77.2777 75.5416 80.1603 78.8856 80.1603C81.1846 80.1603 83.1796 78.8002 84.1866 76.7905L73.8886 70.0712Z" fill="#441A36"/>
<path d="M91.692 82.9008C93.611 82.779 95.131 81.0941 95.131 79.0032C95.131 77.7243 94.561 76.5875 93.668 75.877L89.355 80.1603C90.039 81.2565 90.837 82.17 91.692 82.9008Z" fill="#441A36"/>
<path d="M91.692 82.9008C93.611 82.779 95.131 81.0941 95.131 79.0032C95.131 77.7243 94.561 76.5875 93.668 75.877L89.355 80.1603C90.039 81.2565 90.837 82.17 91.692 82.9008Z" stroke="#441A36" stroke-width="6" stroke-miterlimit="10" stroke-linecap="round" stroke-linejoin="round"/>
<path d="M79.912 60.043C81.7274 60.043 83.199 58.4706 83.199 56.5311C83.199 54.5915 81.7274 53.0192 79.912 53.0192C78.0965 53.0192 76.625 54.5915 76.625 56.5311C76.625 58.4706 78.0965 60.043 79.912 60.043Z" fill="#9DEDB8"/>
<path d="M99.9379 61.3828C101.753 61.3828 103.225 59.8104 103.225 57.8709C103.225 55.9312 101.753 54.359 99.9379 54.359C98.1224 54.359 96.6509 55.9312 96.6509 57.8709C96.6509 59.8104 98.1224 61.3828 99.9379 61.3828Z" fill="#9DEDB8"/>
<path d="M66.2892 62.479C67.4539 62.479 68.3982 61.4701 68.3982 60.2257C68.3982 58.9813 67.4539 57.9724 66.2892 57.9724C65.1245 57.9724 64.1802 58.9813 64.1802 60.2257C64.1802 61.4701 65.1245 62.479 66.2892 62.479Z" fill="#9DEDB8"/>
<path d="M54.756 77.3589C55.9209 77.3589 56.865 76.35 56.865 75.1056C56.865 73.8612 55.9209 72.8523 54.756 72.8523C53.5913 72.8523 52.647 73.8612 52.647 75.1056C52.647 76.35 53.5913 77.3589 54.756 77.3589Z" fill="#9DEDB8"/>
<path d="M111.243 79.3888C111.83 79.3888 112.307 78.8799 112.307 78.252C112.307 77.6242 111.83 77.1152 111.243 77.1152C110.655 77.1152 110.179 77.6242 110.179 78.252C110.179 78.8799 110.655 79.3888 111.243 79.3888Z" fill="#9DEDB8"/>
<path d="M91.6538 66.1939C92.2415 66.1939 92.7178 65.685 92.7178 65.0571C92.7178 64.4292 92.2415 63.9203 91.6538 63.9203C91.0662 63.9203 90.5898 64.4292 90.5898 65.0571C90.5898 65.685 91.0662 66.1939 91.6538 66.1939Z" fill="#9DEDB8"/>
<path d="M141.32 24.0308C146.756 24.0308 151.162 19.3228 151.162 13.5154C151.162 7.70792 146.756 3 141.32 3C135.885 3 131.478 7.70792 131.478 13.5154C131.478 19.3228 135.885 24.0308 141.32 24.0308Z" fill="#4BE080"/>
<path d="M145.899 4.21802C147.913 6.12622 149.205 8.94792 149.205 12.0741C149.205 17.8799 144.797 22.5895 139.363 22.5895C137.71 22.5895 136.171 22.1632 134.803 21.3918C136.532 23.0361 138.831 24.0511 141.339 24.0511C146.773 24.0511 151.181 19.3415 151.181 13.5357C151.162 9.47572 149.034 5.96382 145.899 4.21802Z" fill="#4ACC8A"/>
<path d="M141.32 24.0308C146.756 24.0308 151.162 19.3228 151.162 13.5154C151.162 7.70792 146.756 3 141.32 3C135.885 3 131.478 7.70792 131.478 13.5154C131.478 19.3228 135.885 24.0308 141.32 24.0308Z" stroke="#441A36" stroke-width="6" stroke-miterlimit="10" stroke-linecap="round" stroke-linejoin="round"/>
<path d="M141.396 28.1923V24.4774" stroke="#441A36" stroke-width="6" stroke-miterlimit="10" stroke-linecap="round" stroke-linejoin="round"/>
<path d="M141.32 29.6539C142.076 29.6539 142.688 28.9994 142.688 28.1923C142.688 27.3852 142.076 26.7307 141.32 26.7307C140.565 26.7307 139.952 27.3852 139.952 28.1923C139.952 28.9994 140.565 29.6539 141.32 29.6539Z" fill="#441A36"/>
<path d="M132.255 28.2029L130.507 24.9752" stroke="#441A36" stroke-width="6" stroke-miterlimit="10" stroke-linecap="round" stroke-linejoin="round"/>
<path d="M132.198 29.7051C132.954 29.7051 133.566 29.0506 133.566 28.2435C133.566 27.4364 132.954 26.7819 132.198 26.7819C131.443 26.7819 130.83 27.4364 130.83 28.2435C130.83 29.0506 131.443 29.7051 132.198 29.7051Z" fill="#441A36"/>
<path d="M137.252 22.8031L134.25 20.9355" stroke="#441A36" stroke-width="6" stroke-miterlimit="10" stroke-linecap="round" stroke-linejoin="round"/>
<path d="M127.583 13.5966H131.06" stroke="#441A36" stroke-width="6" stroke-miterlimit="10" stroke-linecap="round" stroke-linejoin="round"/>
<path d="M127.583 14.977C128.338 14.977 128.951 14.3225 128.951 13.5154C128.951 12.7082 128.338 12.0538 127.583 12.0538C126.827 12.0538 126.215 12.7082 126.215 13.5154C126.215 14.3225 126.827 14.977 127.583 14.977Z" fill="#441A36"/>
<path d="M139.076 15.4545H135.58" stroke="#441A36" stroke-width="6" stroke-miterlimit="10" stroke-linecap="round" stroke-linejoin="round"/>
<path d="M129.464 20.9249L132.485 19.0573" stroke="#441A36" stroke-width="6" stroke-miterlimit="10" stroke-linecap="round" stroke-linejoin="round"/>
<path d="M129.426 22.3256C130.182 22.3256 130.794 21.6713 130.794 20.864C130.794 20.0569 130.182 19.4024 129.426 19.4024C128.671 19.4024 128.058 20.0569 128.058 20.864C128.058 21.6713 128.671 22.3256 129.426 22.3256Z" fill="#441A36"/>
<path d="M134.518 26.2638L136.247 23.0564" stroke="#441A36" stroke-width="6" stroke-miterlimit="10" stroke-linecap="round" stroke-linejoin="round"/>
<path d="M134.461 27.7051C135.216 27.7051 135.829 27.0506 135.829 26.2435C135.829 25.4364 135.216 24.7819 134.461 24.7819C133.705 24.7819 133.093 25.4364 133.093 26.2435C133.093 27.0506 133.705 27.7051 134.461 27.7051Z" fill="#441A36"/>
<path d="M138.052 20.5798C139.112 20.5798 139.971 19.6618 139.971 18.5295C139.971 17.3972 139.112 16.4792 138.052 16.4792C136.992 16.4792 136.133 17.3972 136.133 18.5295C136.133 19.6618 136.992 20.5798 138.052 20.5798Z" fill="#9DEDB8"/>
<path d="M139.363 13.0891C139.888 13.0891 140.313 12.6346 140.313 12.0741C140.313 11.5136 139.888 11.0591 139.363 11.0591C138.838 11.0591 138.413 11.5136 138.413 12.0741C138.413 12.6346 138.838 13.0891 139.363 13.0891Z" fill="#9DEDB8"/>
<path d="M143.296 12.6222C143.968 12.6222 144.512 12.0406 144.512 11.323C144.512 10.6054 143.968 10.0238 143.296 10.0238C142.624 10.0238 142.08 10.6054 142.08 11.323C142.08 12.0406 142.624 12.6222 143.296 12.6222Z" fill="#4ACC8A"/>
<path d="M9.574 156.488C13.2047 156.488 16.148 153.344 16.148 149.464C16.148 145.585 13.2047 142.441 9.574 142.441C5.94329 142.441 3 145.585 3 149.464C3 153.344 5.94329 156.488 9.574 156.488Z" fill="#4BE080"/>
<path d="M12.6331 143.232C13.9821 144.511 14.8371 146.399 14.8371 148.49C14.8371 152.367 11.8921 155.514 8.26311 155.514C7.16111 155.514 6.13511 155.23 5.22314 154.722C6.38211 155.818 7.90211 156.488 9.59311 156.488C13.2221 156.488 16.1671 153.342 16.1671 149.465C16.1481 146.744 14.7231 144.41 12.6331 143.232Z" fill="#4ACC8A"/>
<path d="M9.574 156.488C13.2047 156.488 16.148 153.344 16.148 149.464C16.148 145.585 13.2047 142.441 9.574 142.441C5.94329 142.441 3 145.585 3 149.464C3 153.344 5.94329 156.488 9.574 156.488Z" stroke="#441A36" stroke-width="6" stroke-miterlimit="10" stroke-linecap="round" stroke-linejoin="round"/>
<path d="M17.4969 144.511L15.4829 145.75" stroke="#441A36" stroke-width="6" stroke-miterlimit="10" stroke-linecap="round" stroke-linejoin="round"/>
<path d="M17.516 145.526C18.0197 145.526 18.428 145.09 18.428 144.552C18.428 144.014 18.0197 143.578 17.516 143.578C17.0123 143.578 16.604 144.014 16.604 144.552C16.604 145.09 17.0123 145.526 17.516 145.526Z" fill="#441A36"/>
<path d="M14.1341 140.938L12.9751 143.09" stroke="#441A36" stroke-width="6" stroke-miterlimit="10" stroke-linecap="round" stroke-linejoin="round"/>
<path d="M14.1718 141.933C14.6755 141.933 15.0838 141.497 15.0838 140.959C15.0838 140.421 14.6755 139.984 14.1718 139.984C13.6681 139.984 13.2598 140.421 13.2598 140.959C13.2598 141.497 13.6681 141.933 14.1718 141.933Z" fill="#441A36"/>
<path d="M165.57 70.7975C165.931 70.7975 165.931 70.1885 165.57 70.1885C165.19 70.1885 165.19 70.7975 165.57 70.7975Z" fill="#4ACC8A"/>
<path d="M165.32 97.3711C163.217 97.3711 161.436 96.9443 159.977 96.0908C158.529 95.2249 157.428 94.0065 156.674 92.4355C155.919 90.8646 155.542 89.0029 155.542 86.8506C155.542 85.2178 155.728 83.5726 156.099 81.915C156.482 80.2575 157.057 78.6865 157.824 77.2021C158.591 75.7054 159.556 74.3818 160.719 73.2314C161.882 72.0687 163.242 71.1533 164.801 70.4854C166.372 69.805 168.147 69.4648 170.126 69.4648C171.635 69.4648 172.952 69.6071 174.078 69.8916C175.216 70.1761 176.323 70.609 177.399 71.1904L175.674 74.8086C174.882 74.3633 174.041 73.9922 173.15 73.6953C172.26 73.3984 171.252 73.25 170.126 73.25C168.753 73.25 167.522 73.5098 166.434 74.0293C165.357 74.5488 164.417 75.2601 163.613 76.1631C162.822 77.0661 162.166 78.099 161.646 79.2617C161.127 80.4121 160.737 81.6243 160.478 82.8984C160.218 84.1602 160.088 85.4157 160.088 86.665C160.088 88.8792 160.601 90.5863 161.628 91.7861C162.655 92.9736 164.164 93.5674 166.155 93.5674C167.207 93.5674 168.246 93.4499 169.272 93.2148C170.312 92.9798 171.332 92.6768 172.334 92.3057V96.0908C171.468 96.4124 170.46 96.7093 169.31 96.9814C168.172 97.2412 166.842 97.3711 165.32 97.3711ZM185.322 97.334C183.764 97.334 182.403 97.0124 181.24 96.3691C180.077 95.7259 179.174 94.8167 178.531 93.6416C177.9 92.4541 177.585 91.0501 177.585 89.4297C177.585 88.0566 177.727 86.7207 178.012 85.4219C178.309 84.123 178.742 82.9108 179.311 81.7852C179.88 80.6595 180.591 79.6761 181.444 78.835C182.298 77.9814 183.287 77.3197 184.413 76.8496C185.539 76.3672 186.8 76.126 188.198 76.126C189.794 76.126 191.167 76.4476 192.317 77.0908C193.468 77.734 194.352 78.6556 194.971 79.8555C195.589 81.0553 195.898 82.4902 195.898 84.1602C195.898 85.4961 195.756 86.8011 195.472 88.0752C195.2 89.3493 194.785 90.5492 194.229 91.6748C193.672 92.7881 192.967 93.7715 192.113 94.625C191.272 95.4661 190.283 96.1279 189.145 96.6104C188.019 97.0928 186.745 97.334 185.322 97.334ZM185.638 93.7715C186.33 93.7715 186.974 93.6169 187.567 93.3076C188.174 92.986 188.718 92.5345 189.2 91.9531C189.683 91.3594 190.091 90.6605 190.425 89.8564C190.771 89.04 191.037 88.137 191.223 87.1475C191.408 86.1579 191.501 85.1003 191.501 83.9746C191.501 83.2201 191.39 82.5212 191.167 81.8779C190.944 81.2223 190.573 80.6966 190.054 80.3008C189.547 79.8926 188.866 79.6885 188.013 79.6885C187.246 79.6885 186.541 79.874 185.897 80.2451C185.267 80.6038 184.704 81.1048 184.209 81.748C183.727 82.3913 183.318 83.1335 182.984 83.9746C182.65 84.8034 182.397 85.694 182.224 86.6465C182.05 87.5866 181.964 88.5391 181.964 89.5039C181.964 90.877 182.273 91.9346 182.892 92.6768C183.522 93.4066 184.438 93.7715 185.638 93.7715ZM203.803 97L201.131 69.873H205.417L206.79 86.8506C206.852 87.4443 206.895 88.0752 206.92 88.7432C206.957 89.3988 206.976 90.0482 206.976 90.6914C206.988 91.3223 206.976 91.9036 206.938 92.4355H207.068C207.279 91.8665 207.507 91.2852 207.755 90.6914C208.002 90.0853 208.274 89.4606 208.571 88.8174C208.868 88.1742 209.184 87.5186 209.518 86.8506L218.071 69.873H222.729L208.553 97H203.803ZM220.205 97L224.565 76.46H228.907L224.547 97H220.205ZM227.701 73.3799C227.058 73.3799 226.52 73.2253 226.087 72.916C225.654 72.5944 225.438 72.0934 225.438 71.4131C225.438 70.8441 225.543 70.3493 225.753 69.9287C225.976 69.5081 226.291 69.1865 226.699 68.9639C227.12 68.7288 227.621 68.6113 228.202 68.6113C228.845 68.6113 229.371 68.766 229.779 69.0752C230.188 69.3721 230.392 69.8545 230.392 70.5225C230.392 71.3883 230.15 72.0811 229.668 72.6006C229.186 73.1201 228.53 73.3799 227.701 73.3799ZM230.67 97L235.03 76.46H238.426L237.98 80.3379H238.185C238.716 79.5462 239.292 78.8288 239.91 78.1855C240.541 77.5423 241.24 77.029 242.007 76.6455C242.774 76.262 243.627 76.0703 244.567 76.0703C244.901 76.0703 245.248 76.0951 245.606 76.1445C245.978 76.1816 246.299 76.2373 246.571 76.3115L245.625 80.3936C245.353 80.3193 245.056 80.2575 244.734 80.208C244.413 80.1585 244.073 80.1338 243.714 80.1338C242.897 80.1338 242.131 80.3255 241.413 80.709C240.696 81.0924 240.046 81.6243 239.465 82.3047C238.883 82.985 238.382 83.7829 237.962 84.6982C237.541 85.6012 237.214 86.5846 236.979 87.6484L235.012 97H230.67ZM252.546 97.3711C251.445 97.3711 250.505 97.1546 249.726 96.7217C248.959 96.2887 248.371 95.6641 247.963 94.8477C247.567 94.0189 247.369 93.0293 247.369 91.8789C247.369 91.3717 247.406 90.8151 247.48 90.209C247.567 89.5905 247.672 88.9535 247.796 88.2979L250.319 76.46H254.661L252.008 88.9287C251.921 89.4111 251.847 89.8503 251.785 90.2461C251.736 90.6296 251.711 90.9821 251.711 91.3037C251.711 92.1325 251.903 92.7633 252.286 93.1963C252.682 93.6169 253.294 93.8271 254.123 93.8271C255.014 93.8271 255.88 93.4932 256.721 92.8252C257.574 92.1449 258.347 91.1615 259.04 89.875C259.733 88.5885 260.271 87.0361 260.654 85.2178L262.51 76.46H266.814L262.473 97H259.059L259.504 93.1035H259.318C258.824 93.8333 258.248 94.526 257.593 95.1816C256.937 95.8249 256.195 96.3506 255.366 96.7588C254.537 97.167 253.597 97.3711 252.546 97.3711ZM274.032 97.3711C272.746 97.3711 271.62 97.2598 270.655 97.0371C269.703 96.8268 268.843 96.5176 268.076 96.1094V92.3799C268.868 92.8499 269.758 93.2458 270.748 93.5674C271.75 93.8766 272.777 94.0312 273.828 94.0312C274.645 94.0312 275.356 93.9199 275.962 93.6973C276.568 93.4746 277.038 93.1592 277.372 92.751C277.718 92.3304 277.892 91.8232 277.892 91.2295C277.892 90.7965 277.793 90.4131 277.595 90.0791C277.397 89.7451 277.057 89.4049 276.574 89.0586C276.092 88.7122 275.424 88.2979 274.57 87.8154C273.667 87.3083 272.9 86.7949 272.27 86.2754C271.651 85.7435 271.175 85.1559 270.841 84.5127C270.519 83.8695 270.358 83.1149 270.358 82.249C270.358 80.9502 270.655 79.8431 271.249 78.9277C271.855 78 272.709 77.2949 273.81 76.8125C274.923 76.3177 276.234 76.0703 277.743 76.0703C278.955 76.0703 280.1 76.2126 281.176 76.4971C282.252 76.7692 283.248 77.1527 284.163 77.6475L282.734 80.876C282.054 80.4925 281.299 80.1647 280.471 79.8926C279.642 79.6081 278.751 79.4658 277.799 79.4658C276.921 79.4658 276.185 79.6699 275.591 80.0781C275.009 80.4863 274.719 81.0677 274.719 81.8223C274.719 82.2181 274.812 82.5768 274.997 82.8984C275.195 83.2077 275.523 83.5231 275.98 83.8447C276.438 84.1663 277.063 84.5374 277.854 84.958C278.708 85.4281 279.469 85.9229 280.137 86.4424C280.805 86.9619 281.33 87.5618 281.714 88.2422C282.097 88.9102 282.289 89.7204 282.289 90.6729C282.289 92.1201 281.949 93.3447 281.269 94.3467C280.601 95.3363 279.648 96.0908 278.411 96.6104C277.174 97.1175 275.715 97.3711 274.032 97.3711Z" fill="#441A36"/>
</g>
<defs>
<clipPath id="clip0_77_1263">
<rect width="285" height="160" fill="white"/>
</clipPath>
</defs>
</svg>
